<svg xmlns="http://www.w3.org/2000/svg" width="64" height="64" viewBox="0 0 64 64">
  <defs>
    <radialGradient id="rice" cx="50%" cy="42%" r="62%">
      <stop offset="0%" stop-color="#ffd874"/>
      <stop offset="70%" stop-color="#f0a838"/>
      <stop offset="100%" stop-color="#e07d1c"/>
    </radialGradient>
  </defs>
  <rect width="64" height="64" rx="14.08" fill="#fff7e6"/>
  <!-- asas -->
  <circle cx="-1.6640000000000001" cy="32" r="8.32" fill="none" stroke="#3a2e22" stroke-width="2.24"/>
  <circle cx="65.664" cy="32" r="8.32" fill="none" stroke="#3a2e22" stroke-width="2.24"/>
  <!-- borde de la paella -->
  <circle cx="32" cy="32" r="32" fill="#2f2a24"/>
  <circle cx="32" cy="32" r="28.8" fill="url(#rice)"/>
  <!-- tiras de pimiento rojo -->
  <g fill="#c4452a">
    <rect x="14.399999999999999" y="28.8" width="16" height="3.84" rx="1.92" transform="rotate(-18 32 32)"/>
    <rect x="33.92" y="18.560000000000002" width="16" height="3.84" rx="1.92" transform="rotate(22 32 32)"/>
  </g>
  <!-- gajos de limón -->
  <g fill="#ffe066" stroke="#e6b800" stroke-width="0.64">
    <circle cx="45.44" cy="45.44" r="5.12"/>
    <circle cx="17.28" cy="42.88" r="4.16"/>
  </g>
  <!-- judías verdes -->
  <g stroke="#3f8f3a" stroke-width="1.92" stroke-linecap="round" fill="none">
    <path d="M 25.6 48 q 5.76 -3.84 11.52 0"/>
    <path d="M 32.64 35.84 q 5.76 -3.84 11.52 0"/>
  </g>
  <!-- granos de azafrán -->
  <g fill="#b1310f">
    <circle cx="28.8" cy="25.6" r="0.96"/>
    <circle cx="37.76" cy="33.28" r="0.96"/>
    <circle cx="21.759999999999998" cy="32.64" r="0.96"/>
  </g>
</svg>